<svg t="1627265543914" class="icon" viewBox="0 0 1024 1024" version="1.1" xmlns="http://www.w3.org/2000/svg" p-id="3812" width="200" height="200"><path d="M518.451 603.187a71.61 71.61 0 0 1-36.608-10.086L143.565 391.526c-22.221-13.26-35.277-36.608-34.919-62.515s14.132-48.845 36.71-61.44L484.404 78.797c21.811-12.186 47.872-12.135 69.683 0.051L891.75 267.571c22.58 12.595 36.25 35.584 36.608 61.44 0.359 25.856-12.697 49.203-34.918 62.464L555.008 593.101a71.29 71.29 0 0 1-36.557 10.086z m0.717-471.961c-1.69 0-3.38 0.41-4.915 1.28L175.258 321.28c-4.455 2.458-5.172 6.502-5.172 8.653-0.05 2.15 0.564 6.195 4.916 8.806L513.28 540.314c3.174 1.894 7.117 1.894 10.342 0l338.432-201.626c4.352-2.611 4.967-6.656 4.916-8.806-0.052-2.202-0.717-6.196-5.172-8.653L524.134 132.506c-1.536-0.87-3.225-1.28-4.966-1.28zM160.308 294.4z" fill="#515151" p-id="3813"></path><path d="M518.042 777.42c-15.463 0-30.925-3.84-44.8-11.52L89.6 553.166a30.766 30.766 0 0 1-11.98-41.78 30.72 30.72 0 0 1 41.778-11.98l383.59 212.736c9.37 5.171 20.993 5.12 30.311-0.154L906.394 499.61a30.71 30.71 0 0 1 41.881 11.52c8.397 14.745 3.226 33.484-11.52 41.881L563.661 765.44c-13.978 7.987-29.799 11.98-45.62 11.98z" fill="#515151" p-id="3814"></path><path d="M518.042 956.109c-15.463 0-30.925-3.84-44.8-11.52L89.6 731.853a30.766 30.766 0 0 1-11.98-41.78 30.72 30.72 0 0 1 41.778-11.98L503.04 890.88c9.37 5.171 20.992 5.12 30.31-0.154L906.445 678.35a30.71 30.71 0 0 1 41.881 11.52c8.397 14.745 3.226 33.485-11.52 41.881L563.712 944.18a92.861 92.861 0 0 1-45.67 11.929z" fill="#515151" p-id="3815"></path></svg>