<svg t="1627265760198" class="icon" viewBox="0 0 1024 1024" version="1.1" xmlns="http://www.w3.org/2000/svg" p-id="2876" width="200" height="200"><path d="M988.57 388.864L585.523 88.832C546.918 60.109 494.9 59.904 456.09 88.32L45.875 388.762a30.797 30.797 0 0 0-6.656 42.956c5.99 8.192 15.36 12.596 24.832 12.596 6.298 0 12.647-1.946 18.125-5.94l45.363-33.177v426.547c0 67.482 50.535 122.42 112.64 122.42h543.693c62.106 0 112.64-54.938 112.64-122.42v-434.79l55.398 41.216a30.73 30.73 0 0 0 43.008-6.298 30.787 30.787 0 0 0-6.348-43.008z m-153.498-33.74v476.518c0 33.638-22.989 60.979-51.2 60.979H240.128c-28.211 0-51.2-27.341-51.2-60.98V360.09L492.39 137.882c16.896-12.39 39.578-12.288 56.423 0.204l286.464 213.248c-0.103 1.28-0.205 2.51-0.205 3.79z" fill="#515151" p-id="2877"></path><path d="M517.12 748.954c-76.851 0-139.315-62.516-139.315-139.367S440.32 470.272 517.12 470.272c76.851 0 139.366 62.515 139.366 139.315 0 76.851-62.515 139.367-139.366 139.367z m0-217.242c-42.957 0-77.875 34.97-77.875 77.875s34.97 77.927 77.875 77.927 77.926-34.97 77.926-77.927-34.97-77.875-77.926-77.875z" fill="#515151" p-id="2878"></path></svg>