<svg t="1627265848983" class="icon" viewBox="0 0 1024 1024" version="1.1" xmlns="http://www.w3.org/2000/svg" p-id="3354" width="200" height="200"><path d="M519.168 472.474c-38.349 0-76.646-14.592-105.78-43.776a30.72 30.72 0 0 1 0-43.418 30.72 30.72 0 0 1 43.418 0c34.356 34.355 90.317 34.355 124.724 0 11.98-11.98 31.436-11.98 43.468 0s11.981 31.437 0 43.469c-29.184 29.133-67.481 43.725-105.83 43.725z" fill="#515151" p-id="3355"></path><path d="M675.43 520.653c65.024-48.026 107.264-125.184 107.264-212.02 0-145.305-118.22-263.526-263.526-263.526S255.693 163.328 255.693 308.634c0 85.401 40.857 161.382 103.987 209.561-165.018 34.1-289.434 180.531-289.434 355.482 0 52.377 42.599 94.976 94.976 94.976h694.17c52.378 0 94.976-42.599 94.976-94.976-0.051-171.213-119.194-314.983-278.938-353.024z m-358.297-212.02c0-111.41 90.624-202.086 202.086-202.086s202.087 90.624 202.087 202.087c0 111.41-90.624 202.035-202.087 202.035s-202.086-90.624-202.086-202.035z m542.208 598.58H165.222a33.587 33.587 0 0 1-33.536-33.536c0-166.298 135.27-301.568 301.568-301.568H591.36c166.298 0 301.568 135.27 301.568 301.568-0.051 18.483-15.104 33.536-33.587 33.536z" fill="#515151" p-id="3356"></path></svg>