<svg t="1627265880291" class="icon" viewBox="0 0 1024 1024" version="1.1" xmlns="http://www.w3.org/2000/svg" p-id="3616" width="200" height="200"><path d="M790.63 776.192H332.134c-45.414 0-83.712-33.997-89.088-79.053l-58.521-487.936a28.329 28.329 0 0 0-28.109-24.934H77.414c-16.947 0-30.72-13.773-30.72-30.72s13.773-30.72 30.72-30.72h79.002c45.414 0 83.712 33.997 89.088 79.053l2.816 23.654h632.832c27.7 0 53.453 12.493 70.554 34.304s23.193 49.766 16.588 76.698l-90.521 371.25a89.426 89.426 0 0 1-87.143 68.404zM255.744 286.925l48.333 402.893a28.329 28.329 0 0 0 28.109 24.934h458.496a28.211 28.211 0 0 0 27.494-21.606l90.522-371.252c2.048-8.499 0.153-17.305-5.223-24.166s-13.517-10.803-22.22-10.803H255.743z" fill="#d4237a" p-id="3617"></path><path d="M729.754 650.598H406.63c-16.947 0-30.72-13.772-30.72-30.72s13.773-30.72 30.72-30.72h323.175c16.947 0 30.72 13.773 30.72 30.72s-13.773 30.72-30.771 30.72z" fill="#d4237a" p-id="3618"></path><path d="M269.21 866.611a51.354 51.354 0 1 0 102.707 0 51.354 51.354 0 1 0-102.707 0zM758.426 866.611a51.354 51.354 0 1 0 102.707 0 51.354 51.354 0 1 0-102.707 0z" fill="#d4237a" p-id="3619"></path></svg>